<?xml version="1.0" standalone="no"?><!DOCTYPE svg PUBLIC "-//W3C//DTD SVG 1.1//EN" "http://www.w3.org/Graphics/SVG/1.1/DTD/svg11.dtd"><svg t="1623063358705" class="icon" viewBox="0 0 1024 1024" version="1.1" xmlns="http://www.w3.org/2000/svg" p-id="4108" xmlns:xlink="http://www.w3.org/1999/xlink" width="200" height="200"><defs><style type="text/css"></style></defs><path d="M768.8704 67.2256H260.0448c-90.3168 0-163.84 73.5232-163.84 163.84v565.3504c0 90.3168 73.5232 163.84 163.84 163.84h508.8256c90.3168 0 163.84-73.5232 163.84-163.84V231.0656c0-90.3168-73.472-163.84-163.84-163.84z m0 831.5904H260.0448c-56.4736 0-102.4-45.9264-102.4-102.4V327.1168l202.1376 93.3888c4.1472 1.9456 8.5504 2.816 12.8512 2.816 11.6224 0 22.7328-6.6048 27.904-17.8176 7.1168-15.4112 0.4096-33.6384-15.0016-40.7552L157.6448 259.4304v-28.3648c0-56.4736 45.9264-102.4 102.4-102.4h508.8256c56.4736 0 102.4 45.9264 102.4 102.4v29.8496L643.072 364.6464a30.6944 30.6944 0 0 0-15.2576 40.6528 30.6944 30.6944 0 0 0 40.704 15.2576l202.8032-92.2112v468.0192c-0.0512 56.5248-45.9776 102.4512-102.4512 102.4512z" fill="#424242" p-id="4109"></path><path d="M511.9488 617.9328c-93.7472 0-169.984-76.2368-169.984-169.984s76.2368-169.984 169.984-169.984 169.984 76.2368 169.984 169.984-76.288 169.984-169.984 169.984z m0-278.5792c-59.8528 0-108.544 48.6912-108.544 108.544s48.6912 108.544 108.544 108.544 108.544-48.6912 108.544-108.544-48.6912-108.544-108.544-108.544z" fill="#F8B62D" p-id="4110"></path></svg>