<?xml version="1.0" standalone="no"?><!DOCTYPE svg PUBLIC "-//W3C//DTD SVG 1.1//EN" "http://www.w3.org/Graphics/SVG/1.1/DTD/svg11.dtd"><svg t="1623063365473" class="icon" viewBox="0 0 1024 1024" version="1.1" xmlns="http://www.w3.org/2000/svg" p-id="4252" xmlns:xlink="http://www.w3.org/1999/xlink" width="200" height="200"><defs><style type="text/css"></style></defs><path d="M928.67 206.28v-83.17A111.22 111.22 0 0 0 817.56 12H206.44A111.22 111.22 0 0 0 95.33 123.11v777.78A111.22 111.22 0 0 0 206.44 1012h611.12a111.22 111.22 0 0 0 111.11-111.11V206.31a0.23 0.23 0 0 1 0-0.03zM206.44 67.56h611.12a55.63 55.63 0 0 1 55.56 55.56v65L588.61 310.07a195.6 195.6 0 0 1-153.21 0L150.89 188.14v-65a55.63 55.63 0 0 1 55.55-55.58z m611.12 888.88H206.44a55.63 55.63 0 0 1-55.56-55.56V248.56l262.65 112.56a250.93 250.93 0 0 0 196.94 0l262.64-112.56v652.33a55.63 55.63 0 0 1-55.55 55.55z" p-id="4253"></path><path d="M616.55 475.89L512 554.29l-104.55-78.4a27.77 27.77 0 0 0-33.31 44.43l110.08 82.56v6.85H415a27.78 27.78 0 0 0 0 55.56h69.2v41.4H415a27.78 27.78 0 1 0 0 55.56h69.2v69.2a27.78 27.78 0 1 0 55.56 0v-69.2H609a27.78 27.78 0 1 0 0-55.56h-69.2v-41.4H609a27.78 27.78 0 0 0 0-55.56h-69.2v-6.85l110.08-82.56a27.77 27.77 0 0 0-33.31-44.43z" p-id="4254"></path></svg>