<?xml version="1.0" standalone="no"?><!DOCTYPE svg PUBLIC "-//W3C//DTD SVG 1.1//EN" "http://www.w3.org/Graphics/SVG/1.1/DTD/svg11.dtd"><svg t="1623063322948" class="icon" viewBox="0 0 1024 1024" version="1.1" xmlns="http://www.w3.org/2000/svg" p-id="2974" xmlns:xlink="http://www.w3.org/1999/xlink" width="200" height="200"><defs><style type="text/css"></style></defs><path d="M512 470.552381m-170.666667 0a170.666667 170.666667 0 1 0 341.333334 0 170.666667 170.666667 0 1 0-341.333334 0Z" fill="#FFCD00" p-id="2975"></path><path d="M950.369524 403.504762H73.630476c-4.388571 0-8.533333-2.438095-10.727619-6.339048s-1.950476-8.533333 0.24381-12.434285L217.478095 134.095238c2.194286-3.657143 6.095238-5.851429 10.48381-5.851428h568.32c4.144762 0 8.045714 2.194286 10.483809 5.851428l154.087619 250.88c2.438095 3.657143 2.438095 8.533333 0.24381 12.434286s-6.339048 6.095238-10.727619 6.095238z m-855.04-24.380952h833.097143l-139.215238-226.499048H234.544762l-139.215238 226.499048z" p-id="2976"></path><path d="M512 940.129524c-3.657143 0-7.070476-1.706667-9.508571-4.388572L64.121905 399.11619a11.946667 11.946667 0 0 1-1.462857-12.921904 12.434286 12.434286 0 0 1 10.971428-7.070476h876.739048c4.632381 0 9.020952 2.681905 10.971428 7.070476 1.950476 4.144762 1.462857 9.264762-1.462857 12.921904L521.508571 935.740952c-2.438095 2.681905-5.851429 4.388571-9.508571 4.388572zM99.230476 403.504762L512 908.678095l412.769524-505.173333H99.230476z" p-id="2977"></path><path d="M512 940.129524c-5.36381 0-10.24-3.657143-11.702857-9.020953l-147.748572-536.624761c-1.706667-6.582857 1.950476-13.165714 8.533334-15.116191 6.339048-1.706667 13.165714 1.950476 14.872381 8.533333l147.748571 536.624762a12.361143 12.361143 0 0 1-11.702857 15.60381z" p-id="2978"></path><path d="M512 940.129524a12.239238 12.239238 0 0 1-11.702857-15.60381l147.748571-536.624762c1.706667-6.582857 8.533333-10.24 14.872381-8.533333 6.582857 1.706667 10.24 8.533333 8.533334 15.116191l-147.748572 536.624761c-1.462857 5.36381-6.339048 9.020952-11.702857 9.020953zM364.251429 403.504762a11.946667 11.946667 0 0 1-10.727619-6.339048L216.990476 146.285714a12.288 12.288 0 0 1 4.876191-16.579047c5.851429-3.169524 13.409524-0.975238 16.579047 4.87619l136.533334 250.88c3.169524 5.851429 0.975238 13.409524-4.876191 16.579048-1.950476 0.975238-3.900952 1.462857-5.851428 1.462857z" p-id="2979"></path><path d="M364.251429 403.504762c-2.194286 0-4.144762-0.487619-6.095239-1.706667a12.092952 12.092952 0 0 1-4.388571-16.579047l147.748571-251.12381c3.413333-5.851429 10.971429-7.801905 16.579048-4.388571 5.851429 3.413333 7.801905 10.971429 4.388572 16.579047l-147.748572 250.88c-2.194286 4.388571-6.339048 6.339048-10.483809 6.339048z" p-id="2980"></path><path d="M659.748571 403.504762c-4.144762 0-8.289524-2.194286-10.483809-6.095238L501.51619 146.529524a12.01981 12.01981 0 0 1 4.388572-16.579048c5.851429-3.413333 13.165714-1.462857 16.579048 4.388572l147.748571 250.88c3.413333 5.851429 1.462857 13.165714-4.388571 16.579047-1.950476 1.219048-3.900952 1.706667-6.095239 1.706667z" p-id="2981"></path><path d="M659.748571 403.504762c-1.950476 0-3.900952-0.487619-5.851428-1.462857a12.336762 12.336762 0 0 1-4.876191-16.579048l136.533334-250.88c3.169524-5.851429 10.727619-8.045714 16.579047-4.87619 5.851429 3.169524 8.045714 10.727619 4.876191 16.579047l-136.533334 250.88a11.946667 11.946667 0 0 1-10.727619 6.339048z" p-id="2982"></path></svg>