<?xml version="1.0" standalone="no"?><!DOCTYPE svg PUBLIC "-//W3C//DTD SVG 1.1//EN" "http://www.w3.org/Graphics/SVG/1.1/DTD/svg11.dtd"><svg t="1623063418490" class="icon" viewBox="0 0 1024 1024" version="1.1" xmlns="http://www.w3.org/2000/svg" p-id="6096" xmlns:xlink="http://www.w3.org/1999/xlink" width="200" height="200"><defs><style type="text/css"></style></defs><path d="M382.312 92h-0.628c-16.278 0.34-29.372 13.64-29.372 30l-0.002 237.43-247.082 405.76A90 90 0 0 0 92.098 812c0 49.706 40.294 90 90 90h658.43a90 90 0 0 0 46.808-13.13l1.266-0.784c41.454-26.174 54.388-80.866 28.794-122.894L672.31 362.71 672.312 122c0-16.568-13.43-30-30-30h-260z m30 60h200v219.128a30 30 0 0 0 4.376 15.602L866.15 796.4c8.618 14.15 4.132 32.608-10.02 41.226a30 30 0 0 1-15.602 4.376H182.098c-16.568 0-30-13.432-30-30a30 30 0 0 1 4.376-15.602l251.46-412.952 0.44-0.748a30 30 0 0 0 3.938-14.854V152z" fill="#333333" p-id="6097"></path><path d="M746 93c16.568 0 30 13.432 30 30 0 16.36-13.094 29.66-29.372 29.994L746 153H278c-16.568 0-30-13.432-30-30 0-16.36 13.094-29.66 29.372-29.994L278 93h468z" fill="#333333" p-id="6098"></path><path d="M378.142 722.09l267.86 0.804c16.56 0.066 29.948 13.528 29.926 30.09L675.858 782 348 781.016l0.07-29.016c0.022-16.568 13.486-29.968 30.056-29.928 0.006 0 0.01 0 0.016 0.018z" fill="#008FD5" p-id="6099"></path></svg>