<?xml version="1.0" standalone="no"?><!DOCTYPE svg PUBLIC "-//W3C//DTD SVG 1.1//EN" "http://www.w3.org/Graphics/SVG/1.1/DTD/svg11.dtd"><svg t="1612552362851" class="icon" viewBox="0 0 1024 1024" version="1.1" xmlns="http://www.w3.org/2000/svg" p-id="2200" xmlns:xlink="http://www.w3.org/1999/xlink" width="128" height="128"><defs><style type="text/css"></style></defs><path d="M512.001023 301.866119c-16.578584 0-30.020734-13.441127-30.020734-30.020734L481.980289 31.69077c0-16.57756 13.441127-30.020734 30.020734-30.020734 16.576537 0 30.018687 13.441127 30.018687 30.020734l0 240.154615C542.018687 288.424992 528.57756 301.866119 512.001023 301.866119L512.001023 301.866119z" p-id="2201"></path><path d="M512.001023 1022.328941c-16.578584 0-30.020734-13.441127-30.020734-30.019711L481.980289 752.154615c0-16.576537 13.441127-30.017664 30.020734-30.017664 16.576537 0 30.018687 13.441127 30.018687 30.017664l0 240.155638C542.018687 1008.888837 528.57756 1022.328941 512.001023 1022.328941L512.001023 1022.328941z" p-id="2202"></path><path d="M992.310254 542.019711 752.155638 542.019711c-16.578584 0-30.019711-13.441127-30.019711-30.020734 0-16.578584 13.441127-30.018687 30.019711-30.018687l240.154615 0c16.578584 0 30.018687 13.441127 30.018687 30.018687C1022.328941 528.579607 1008.887814 542.019711 992.310254 542.019711L992.310254 542.019711z" p-id="2203"></path><path d="M271.845385 542.019711 31.69077 542.019711c-16.578584 0-30.019711-13.441127-30.019711-30.020734 0-16.578584 13.441127-30.018687 30.019711-30.018687L271.845385 481.980289c16.578584 0 30.020734 13.441127 30.020734 30.018687C301.864072 528.579607 288.422945 542.019711 271.845385 542.019711L271.845385 542.019711z" p-id="2204"></path><path d="M927.933037 782.174326c-5.087878 0-10.246365-1.290389-14.980179-4.0175L704.969966 658.081053c-14.363126-8.296967-19.274996-26.647917-10.992355-41.013089 8.311293-14.379499 26.618241-19.304671 41.013089-10.992355l207.981868 120.076796c14.363126 8.296967 19.274996 26.647917 10.992355 41.013089C948.395068 776.794805 938.310386 782.174326 927.933037 782.174326L927.933037 782.174326z" p-id="2205"></path><path d="M303.989479 421.941891c-5.086855 0-10.246365-1.290389-14.980179-4.015454L81.028455 297.848619c-14.365172-8.296967-19.276019-26.647917-10.993378-41.013089 8.295943-14.365172 26.603915-19.290345 41.013089-10.992355l207.980845 120.076796c14.365172 8.296967 19.274996 26.647917 10.992355 41.013089C324.452533 416.562371 314.366827 421.941891 303.989479 421.941891L303.989479 421.941891z" p-id="2206"></path><path d="M752.185314 957.981401c-10.378371 0-20.463054-5.379521-26.03291-15.009855L606.074585 734.9907c-8.281617-14.363126-3.370771-32.716122 10.992355-41.013089 14.305821-8.295943 32.701796-3.370771 41.013089 10.993378L778.156826 912.951835c8.281617 14.364149 3.370771 32.716122-10.992355 41.013089C762.443959 956.691011 757.270123 957.981401 752.185314 957.981401L752.185314 957.981401z" p-id="2207"></path><path d="M391.95288 334.054215c-10.377348 0-20.463054-5.379521-26.03291-15.009855L245.842151 111.063515c-8.281617-14.365172-3.370771-32.716122 10.993378-41.013089 14.320147-8.324596 32.700773-3.357468 41.013089 10.993378l120.076796 207.979822c8.281617 14.365172 3.372817 32.716122-10.992355 41.013089C402.211525 332.763826 397.037688 334.054215 391.95288 334.054215L391.95288 334.054215z" p-id="2208"></path><path d="M271.815709 957.981401c-5.086855 0-10.246365-1.289366-14.980179-4.016477-14.363126-8.295943-19.274996-26.647917-10.992355-41.013089l120.077819-207.980845c8.295943-14.365172 26.588565-19.290345 41.013089-10.993378 14.364149 8.296967 19.274996 26.64894 10.992355 41.013089L297.848619 942.971545C292.27774 952.60188 282.19408 957.981401 271.815709 957.981401L271.815709 957.981401z" p-id="2209"></path><path d="M632.048143 334.054215c-5.086855 0-10.246365-1.290389-14.980179-4.0175-14.365172-8.296967-19.274996-26.647917-10.992355-41.013089L726.152405 81.043804c8.281617-14.350846 26.573215-19.318998 41.013089-10.993378 14.365172 8.296967 19.274996 26.647917 10.992355 41.013089L658.079006 319.04436C652.510174 328.674695 642.426515 334.054215 632.048143 334.054215L632.048143 334.054215z" p-id="2210"></path><path d="M96.067986 782.174326c-10.377348 0-20.463054-5.379521-26.03291-15.009855-8.281617-14.365172-3.371794-32.716122 10.993378-41.013089l207.980845-120.076796c14.32117-8.312316 32.701796-3.387144 41.013089 10.992355 8.281617 14.365172 3.372817 32.716122-10.992355 41.013089L111.048165 778.157849C106.327654 780.883937 101.153818 782.174326 96.067986 782.174326L96.067986 782.174326z" p-id="2211"></path><path d="M720.010521 421.957241c-10.377348 0-20.463054-5.379521-26.03291-15.009855-8.281617-14.365172-3.370771-32.717146 10.992355-41.013089l207.981868-120.077819c14.335497-8.311293 32.686447-3.385097 41.013089 10.993378 8.281617 14.363126 3.370771 32.716122-10.992355 41.012066L734.9907 417.940764C730.271212 420.666852 725.095329 421.957241 720.010521 421.957241L720.010521 421.957241z" p-id="2212"></path></svg>