<?xml version="1.0" standalone="no"?><!DOCTYPE svg PUBLIC "-//W3C//DTD SVG 1.1//EN" "http://www.w3.org/Graphics/SVG/1.1/DTD/svg11.dtd"><svg t="1596792641925" class="icon" viewBox="0 0 1031 1024" version="1.1" xmlns="http://www.w3.org/2000/svg" p-id="2552" xmlns:xlink="http://www.w3.org/1999/xlink" width="64.4375" height="64"><defs><style type="text/css"></style></defs><path d="M796.127955 1024H234.993046a179.923968 179.923968 0 0 1-179.923969-179.923968V354.151136a33.23134 33.23134 0 0 1 53.170144-26.585072 103.491887 103.491887 0 0 0 63.139546 21.837738h47.473342a104.916087 104.916087 0 0 0 102.54242-104.916088 33.23134 33.23134 0 0 1 65.987947 0 104.916087 104.916087 0 0 0 104.916087 104.916088h47.473342a104.916087 104.916087 0 0 0 101.11822-104.916088 33.23134 33.23134 0 0 1 65.987946 0 104.916087 104.916087 0 0 0 104.916088 104.916088h47.473342a103.491887 103.491887 0 0 0 63.139546-21.837738 33.23134 33.23134 0 0 1 53.170144 26.585072v490.399629a179.923968 179.923968 0 0 1-179.449236 179.449235zM121.057024 407.796013v436.280019a113.936022 113.936022 0 0 0 113.461288 113.461288h561.609643a113.936022 113.936022 0 0 0 113.936023-113.461288V407.796013a167.106166 167.106166 0 0 1-47.473343 7.595735h-47.473342a171.378767 171.378767 0 0 1-138.147427-70.260547 170.904033 170.904033 0 0 1-138.147427 70.260547h-47.473343A171.378767 171.378767 0 0 1 356.05007 345.605934a170.904033 170.904033 0 0 1-139.571628 69.785814h-47.473342a167.106166 167.106166 0 0 1-47.948076-7.595735z" fill="#515151" p-id="2553"></path><path d="M860.216968 415.391748h-47.473343a171.378767 171.378767 0 0 1-138.147427-70.260547 170.904033 170.904033 0 0 1-138.147427 70.260547h-47.473342a171.378767 171.378767 0 0 1-132.925359-69.785814 170.904033 170.904033 0 0 1-139.571628 69.785814h-47.473342A171.378767 171.378767 0 0 1 0 244.487714V33.23134A33.23134 33.23134 0 0 1 33.23134 0h964.658322a33.23134 33.23134 0 0 1 33.231339 33.23134v211.256374a171.378767 171.378767 0 0 1-170.904033 170.904034z m-183.721836-204.135373a33.23134 33.23134 0 0 1 33.23134 33.231339 104.916087 104.916087 0 0 0 104.916087 104.916088h47.473343a104.916087 104.916087 0 0 0 104.916087-104.916088V65.987946H65.987946v178.499768A104.916087 104.916087 0 0 0 170.904033 349.403802h47.473343a104.916087 104.916087 0 0 0 103.017153-104.916088 33.23134 33.23134 0 0 1 65.987947 0 104.916087 104.916087 0 0 0 104.916087 104.916088h47.473342a104.916087 104.916087 0 0 0 101.11822-104.916088 33.23134 33.23134 0 0 1 35.605007-33.231339zM635.193324 1024H400.200278a33.23134 33.23134 0 0 1-33.23134-33.23134v-267.274919a150.490496 150.490496 0 0 1 300.980992 0v267.749653a33.23134 33.23134 0 0 1-32.756606 32.756606z m-201.761706-65.987946h168.530366v-234.518313a84.50255 84.50255 0 0 0-168.530366 0z" fill="#515151" p-id="2554"></path></svg>