<?xml version="1.0" standalone="no"?><!DOCTYPE svg PUBLIC "-//W3C//DTD SVG 1.1//EN" "http://www.w3.org/Graphics/SVG/1.1/DTD/svg11.dtd"><svg t="1623063992735" class="icon" viewBox="0 0 1024 1024" version="1.1" xmlns="http://www.w3.org/2000/svg" p-id="7046" xmlns:xlink="http://www.w3.org/1999/xlink" width="200" height="200"><defs><style type="text/css"></style></defs><path d="M641 841.9H254.4c-23.2 0-42-18.8-42-42V191c0-23.2 18.8-42 42-42H747c23.2 0 42 18.8 42 42v174c0 13.3 10.7 24 24 24s24-10.7 24-24V191c0-49.6-40.4-90-90-90H254.4c-49.6 0-90 40.4-90 90v608.8c0 49.6 40.4 90 90 90H641c13.3 0 24-10.7 24-24s-10.7-23.9-24-23.9z" fill="#AAAAAA" p-id="7047"></path><path d="M703 300.7H313.3c-13.3 0-24 10.7-24 24s10.7 24 24 24H703c13.3 0 24-10.7 24-24s-10.7-24-24-24zM645 489.2H313.3c-13.3 0-24 10.7-24 24s10.7 24 24 24H645c13.3 0 24-10.7 24-24s-10.7-24-24-24zM301.9 725.7H603c13.3 0 24-10.7 24-24s-10.7-24-24-24H301.9c-13.3 0-24 10.7-24 24s10.7 24 24 24zM774.6 449c-15 16.2-22.7 41-20.8 66.4l14.8 193.4c1.9 24.8 22.3 44.2 46.5 44.2h0.1c21.7 0 40-17.3 41.7-39.4l15.3-200.4c1.9-24.8-5.7-49-20.3-64.7-10.5-11.3-24.1-17.5-38.2-17.5-14.5 0-28.4 6.4-39.1 18z m48 26.7c6.9 7.5 10.7 21 9.7 34.5L817 710.6c-0.1 1.6-1.2 2.4-1.8 2.4h-0.1c-3.4 0-6.3-3.2-6.6-7.3l-14.8-193.4c-1.1-14.1 2.9-28.2 10.2-36.1 3.2-3.4 6.5-5.2 9.8-5.2 3 0 6 1.6 8.9 4.7zM813 776.3c-36.8 0-66.7 29.9-66.7 66.7s29.9 66.7 66.7 66.7 66.7-29.9 66.7-66.7-29.9-66.7-66.7-66.7z m0 93.4c-14.7 0-26.7-12-26.7-26.7s12-26.7 26.7-26.7 26.7 12 26.7 26.7-12 26.7-26.7 26.7z" fill="#AAAAAA" p-id="7048"></path></svg>